<svg width="800" height="600" xmlns="http://www.w3.org/2000/svg">
 <g>
  <title>Layer 1</title>
  <path transform="rotate(179.598 399.882 299.668)" stroke="#000" id="svg_3" d="m420.84049,274.77451c15.80748,0 31.61497,0 47.42245,0c0,16.59574 0,33.19149 0,49.78723c-15.80748,0 -31.61497,0 -47.42245,0c0,-16.59574 0,-33.19149 0,-49.78723zm-68.49911,0c17.56376,0 35.12786,0 52.69163,0c0,16.59574 0,33.19149 0,49.78723c-17.56376,0 -35.12786,0 -52.69163,0c0,-16.59574 0,-33.19149 0,-49.78723zm-63.22994,0c17.56376,0 35.12785,0 52.69161,0c0,16.59574 0,33.19149 0,49.78723c-17.56376,0 -35.12786,0 -52.69161,0c0,-16.59574 0,-33.19149 0,-49.78723zm-63.22994,0c17.56376,0 35.12785,0 52.69162,0c0,16.59574 0,33.19149 0,49.78723c-17.56377,0 -35.12785,0 -52.69162,0c0,-16.59574 0,-33.19149 0,-49.78723zm194.95898,102.67022c16.68577,-1.12408 33.37125,0.79422 50.05703,-0.32987c1.07061,-17.51772 0.57472,-35.03548 1.64533,-52.5532c15.61517,0 32.79685,0 48.41169,0c0,-16.59574 0,-33.1915 0,-49.78723c-15.80748,0 -31.61497,0 -47.42245,0c0,-18.43975 0,-36.87945 0,-55.31915c-17.56376,0 -35.12785,0 -52.69161,0c0,-16.59574 0,-33.19149 0,-49.78723c17.56376,0 35.12785,0 52.69161,0c0,16.59574 0,33.19149 0,49.78723c15.61486,0 32.79653,-0.8223 48.41169,-0.8223c1.07061,17.51767 0.57473,35.85777 1.64535,53.37549c16.68576,1.12405 33.60658,-0.09536 50.29237,1.02869c0,16.3937 -0.23535,35.13079 -0.23535,51.52451c-17.56376,0 -35.12785,0 -52.69161,0c0,18.43974 0,36.87941 0,55.31915c-15.80748,0 -31.61497,0 -47.42245,0c0,16.59574 0,33.19149 0,49.78723c-17.56376,0 -35.12785,0 -52.69161,0c0,-16.3937 0,-35.82964 0,-52.22335l-0.00001,0.00004z" fill="#fff"/>
 </g>

</svg>